# xmcd
#
# Track frame offsets: 
#        150
#        13085
#        26253
#        38840
#        54233
#        69855
#        84475
#        97143
#        111720
#        129265
#        141910
#        156173
#
# Disc length: 2264 seconds
#
# Revision: 8
# Processed by: cddbd v1.5.2PL0 Copyright (c) Steve Scherf et al.
# Submitted via: ExactAudioCopyFreeDBPlugin 1.0
#
DISCID=9a08d60c
DTITLE=Various Artist - Didn't It Blow Your Mind!:  Soul Hits of the 
DTITLE='70s [Rhino series]
DYEAR=1991
DGENRE=SMB
TTITLE0=The Flaming Ember - Westbound Number Nine
TTITLE1=Ike and Tina Turner - I Want to Take You Higher
TTITLE2=The Chairmen of the Board - (You've Got Me) Dangling on a Stri
TTITLE2=ng
TTITLE3=Edwin Starr - War
TTITLE4=Ronnie Dyson - (If You Let Me Make Love to You Then) Why Can't
TTITLE4=I Touch You
TTITLE5=Gene Chandler - Groovy Situation
TTITLE6=The Chairmen of the Board - Everything's Tuesday
TTITLE7=The Spinners - It's a Shame
TTITLE8=Charles Wright and The Watts 103rd Street Rhythm Band - Expres
TTITLE8=s Yourself
TTITLE9=One Hundred Proof Aged in Soul - Somebody's Been Sleeping
TTITLE10=The Presidents - 5-10-15-20 (25-30 Years of Love)
TTITLE11=The Flaming Ember - I'm Not My Brother's Keeper
EXTD=
EXTT0=
EXTT1=
EXTT2=
EXTT3=
EXTT4=
EXTT5=
EXTT6=
EXTT7=
EXTT8=
EXTT9=
EXTT10=
EXTT11=
PLAYORDER=
